<?xml version="1.0" encoding="UTF-8" standalone="no"?>
<!DOCTYPE svg PUBLIC "-//W3C//DTD SVG 1.1//EN" "http://www.w3.org/Graphics/SVG/1.1/DTD/svg11.dtd">
<svg width="100%" height="100%" viewBox="0 0 64 64" version="1.1" xmlns="http://www.w3.org/2000/svg" xmlns:xlink="http://www.w3.org/1999/xlink" xml:space="preserve" xmlns:serif="http://www.serif.com/" style="fill-rule:evenodd;clip-rule:evenodd;stroke-linecap:round;stroke-linejoin:round;">
    <g transform="matrix(1,0,0,1,0,-988.362)">
        <g id="Layer-1" serif:id="Layer 1">
            <g id="path3057" transform="matrix(1.18302,0,0,1.08251,-37.4042,966.826)">
                <path d="M53.507,27.518L57.187,26.638L57.187,45.718L53.947,45.718C52.107,45.718 51.267,45.798 51.267,47.078C51.267,47.998 51.787,48.478 52.827,48.478L64.507,48.478C65.547,48.478 66.067,47.998 66.067,47.078C66.067,45.798 65.227,45.718 63.387,45.718L60.267,45.718L60.267,24.598C60.267,23.798 59.947,23.318 59.467,23.318C59.227,23.318 58.947,23.358 58.627,23.438L52.827,24.998C51.987,25.238 51.547,25.718 51.547,26.358C51.547,27.078 52.067,27.598 52.907,27.598C53.107,27.598 53.307,27.558 53.507,27.518Z" style="fill:rgb(211,215,207);fill-rule:nonzero;"/>
                <path d="M53.811,29.335C53.51,29.395 53.208,29.445 52.907,29.445C50.935,29.445 49.856,28.048 49.856,26.358C49.856,24.981 50.591,23.727 52.411,23.207L58.236,21.64L58.25,21.637C58.713,21.521 59.119,21.47 59.467,21.47C60.751,21.47 61.957,22.458 61.957,24.598C61.957,24.598 61.957,43.87 61.957,43.87L63.387,43.87C64.327,43.87 65.05,43.91 65.576,44.045C66.275,44.225 66.767,44.568 67.119,45.017C67.497,45.499 67.757,46.144 67.757,47.078C67.757,48.179 67.377,48.984 66.754,49.547C66.249,50.003 65.517,50.325 64.507,50.325L52.827,50.325C51.817,50.325 51.084,50.003 50.579,49.547C49.957,48.984 49.576,48.179 49.576,47.078C49.576,46.144 49.836,45.499 50.214,45.017C50.567,44.568 51.059,44.225 51.758,44.045C52.283,43.91 53.007,43.87 53.947,43.87L55.496,43.87L55.496,28.933L53.84,29.33L53.811,29.335ZM53.507,27.518L57.187,26.638L57.187,45.718L53.947,45.718C52.107,45.718 51.267,45.798 51.267,47.078C51.267,47.998 51.787,48.478 52.827,48.478L64.507,48.478C65.547,48.478 66.067,47.998 66.067,47.078C66.067,45.798 65.227,45.718 63.387,45.718L60.267,45.718L60.267,24.598C60.267,23.798 59.947,23.318 59.467,23.318C59.227,23.318 58.947,23.358 58.627,23.438L52.827,24.998C51.987,25.238 51.547,25.718 51.547,26.358C51.547,27.078 52.067,27.598 52.907,27.598C53.107,27.598 53.307,27.558 53.507,27.518Z" style="fill:rgb(46,52,54);"/>
            </g>
            <g transform="matrix(1,0,0,1,0,9.66252)">
                <g id="rect3852" transform="matrix(1,0,0,1,0.923623,997.038)">
                    <rect x="3" y="37" width="58" height="6" style="fill:white;stroke:rgb(46,52,54);stroke-width:2px;"/>
                </g>
                <g transform="matrix(0.97976,0,0,0.821343,1.5904,1004.1)">
                    <rect x="3.421" y="39.453" width="57.158" height="3.095" style="fill:rgb(211,215,207);"/>
                </g>
            </g>
            <g transform="matrix(-0.849287,1.04008e-16,-1.04008e-16,-0.849287,63.7877,1053.18)">
                <path d="M37.429,15.631L46.15,33.073L28.708,33.073L37.429,15.631Z" style="fill:rgb(211,215,207);"/>
                <path d="M39.535,14.578L48.256,32.02C48.621,32.75 48.582,33.617 48.153,34.311C47.724,35.005 46.966,35.428 46.15,35.428L28.708,35.428C27.891,35.428 27.133,35.005 26.704,34.311C26.275,33.617 26.236,32.75 26.601,32.02L35.322,14.578C35.721,13.78 36.537,13.276 37.429,13.276C38.321,13.276 39.136,13.78 39.535,14.578ZM37.429,15.631L28.708,33.073L46.15,33.073L37.429,15.631Z" style="fill:rgb(46,52,54);"/>
            </g>
            <g transform="matrix(-0.568228,6.95879e-17,-6.95879e-17,-0.568228,53.2681,1045.2)">
                <path d="M37.429,15.631L46.15,33.073L28.708,33.073L37.429,15.631Z" style="fill:url(#_Linear1);"/>
            </g>
        </g>
    </g>
    <defs>
        <linearGradient id="_Linear1" x1="0" y1="0" x2="1" y2="0" gradientUnits="userSpaceOnUse" gradientTransform="matrix(17.4423,0,0,17.4423,28.7076,24.3519)"><stop offset="0" style="stop-color:rgb(86,94,79);stop-opacity:1"/><stop offset="0.58" style="stop-color:rgb(172,177,167);stop-opacity:1"/><stop offset="1" style="stop-color:rgb(211,215,207);stop-opacity:1"/></linearGradient>
    </defs>
</svg>
